<svg xmlns="http://www.w3.org/2000/svg" viewBox="0 0 55.017 55.017"><path d="M51.688 23.013h-10.9a1 1 0 1 0 0 2H49.9l2.9 27H2.268l3.403-27h9.118a1 1 0 1 0 0-2H3.907L0 54.013h55.017l-3.33-31zM26.654 38.968l-.445.255-.646.445a1 1 0 1 0 1.183 1.613l.548-.38c.32-.208.662-.403 1.014-.58.468-.237.658-.8.462-1.27.008-.008.018-.014.025-.022 1.8-1.916 7.905-9.096 10.43-21.058.512-2.426.627-4.754.342-6.92C38.707 4.476 34.622 1 27.754 1S16.804 4.477 15.94 11.05c-.284 2.166-.17 4.494.343 6.92 2.5 11.846 8.5 18.998 10.37 20.996zm-8.73-27.654c.733-5.592 3.95-8.3 9.83-8.3s9.098 2.72 9.83 8.3c.255 1.94.148 4.043-.316 6.247C35 28.314 29.6 35.137 27.755 37.207c-1.837-2.072-7.246-8.898-9.514-19.646-.465-2.204-.57-4.306-.317-6.247zm9.83 8.61c4.05 0 7.346-3.295 7.346-7.346s-3.295-7.346-7.346-7.346-7.346 3.295-7.346 7.346 3.295 7.346 7.346 7.346zm0-12.7c2.947 0 5.346 2.398 5.346 5.346s-2.398 5.346-5.346 5.346-5.346-2.398-5.346-5.346 2.4-5.346 5.346-5.346zm3.673 29.935a1 1 0 0 0 .208 1.978c.07 0 .14-.007.2-.022l1.886-.313a1 1 0 0 0 .869-1.115.99.99 0 0 0-1.115-.869l-2.058.34zm5.172.406a1 1 0 0 0 .998.957l.044-.001 2-.083a1 1 0 0 0 .953-1.044 1.03 1.03 0 0 0-1.044-.954l-1.996.083a1 1 0 0 0-.956 1.042zm-14.167 4.6l-1.58 1.107a1 1 0 1 0 1.09 1.678l1.695-1.188a1 1 0 1 0-1.204-1.597zm22.287-6.594c-.338.237-.777.4-1.346.526a1 1 0 0 0 .202 1.98c.067 0 .135-.007.203-.02.842-.174 1.526-.452 2.096-.853l.134-.098a1 1 0 0 0-1.207-1.595l-.082.06zm-35.86 7.82a1 1 0 0 0-.704-1.226c-.53-.15-1.082.17-1.226.704a6.69 6.69 0 0 0-.225 1.405l-.008.353.03.587a1 1 0 0 0 .994.898l.103-.005a1 1 0 0 0 .894-1.097c-.014-.13-.02-.264-.02-.4l.007-.248a4.66 4.66 0 0 1 .156-.981z"/><path d="M44.698 27.8a5.88 5.88 0 0 0-2.386.181c-.532.15-.84.702-.7 1.233a1 1 0 0 0 .961.729.98.98 0 0 0 .272-.038c.52-.146 1.055-.192 1.575-.122.562.07 1.052-.3 1.125-.857a1 1 0 0 0-.857-1.126zm2 4.964a1 1 0 0 0 .66 1.25.98.98 0 0 0 .295.045 1 1 0 0 0 .955-.705 4.26 4.26 0 0 0 .183-.963l.008-.25a3.99 3.99 0 0 0-.255-1.392 1 1 0 0 0-1.285-.59 1 1 0 0 0-.59 1.285c.086.232.13.467.13.696l-.003.117c-.012.166-.044.332-.098.507zm-29.208 12.4l-1.774.76a1 1 0 0 0 .361 1.933.99.99 0 0 0 .36-.067l1.903-.813a1 1 0 1 0-.85-1.812zM10.2 41a1 1 0 0 0 .478-.122c.288-.157.595-.255.9-.3a1.62 1.62 0 0 1 .406.002.99.99 0 0 0 1.122-.86 1 1 0 0 0-.86-1.122c-.298-.04-.6-.04-.9-.008a4.48 4.48 0 0 0-1.646.52 1 1 0 0 0 .48 1.878zm-.207 7.842c.216.056.436.098.654.124a6.39 6.39 0 0 0 .769.047 7.42 7.42 0 0 0 .94-.062 1 1 0 0 0 .867-1.117 1 1 0 0 0-1.117-.867 4.9 4.9 0 0 1-1.216.015c-.132-.017-.264-.042-.394-.075-.535-.143-1.08.18-1.22.716a1 1 0 0 0 .717 1.219z"/></svg>